<svg width="50" height="50" viewBox="0 0 50 50" fill="none" xmlns="http://www.w3.org/2000/svg">
<g clip-path="url(#clip0_150_586)">
<path d="M7.59372 31.9116C6.74795 31.0659 6.74795 29.6927 7.59372 28.8469L28.8469 7.59372C29.6927 6.74795 31.0659 6.74795 31.9116 7.59372C32.7574 8.43948 32.7574 9.8127 31.9116 10.6585L10.6585 31.9116C9.8127 32.7574 8.43948 32.7574 7.59372 31.9116ZM3.70139 31.7843L31.7843 3.70139C32.6301 2.85563 32.6301 1.4824 31.7843 0.636641C30.9386 -0.209121 29.5653 -0.209121 28.7196 0.636641L0.636641 28.7196C-0.209121 29.5653 -0.209121 30.9386 0.636641 31.7843C1.4824 32.6301 2.85563 32.6301 3.70139 31.7843ZM4.64719 23.745L23.745 4.64719C24.5908 3.80143 24.5908 2.4282 23.745 1.58244C22.8993 0.736677 21.5261 0.736677 20.6803 1.58244L1.58244 20.6803C0.736677 21.5261 0.736677 22.8993 1.58244 23.745C2.4282 24.5908 3.80143 24.5908 4.64719 23.745ZM4.23795 17.0699L17.0699 4.23795C17.9157 3.39219 17.9157 2.01896 17.0699 1.1732C16.2241 0.327438 14.8509 0.327438 14.0051 1.1732L1.1732 14.0051C0.327438 14.8509 0.327438 16.2241 1.1732 17.0699C2.01896 17.9157 3.39219 17.9157 4.23795 17.0699ZM5.82034 8.39401L8.39401 5.82034C9.23977 4.97458 9.23977 3.60136 8.39401 2.75559C7.54824 1.90983 6.17502 1.90983 5.32926 2.75559L2.75559 5.32926C1.90983 6.17502 1.90983 7.54824 2.75559 8.39401C3.60136 9.23977 4.97458 9.23977 5.82034 8.39401ZM42.7429 0.791243L0.791243 42.7429C-0.0545195 43.5886 -0.0545195 44.9618 0.791243 45.8076C1.637 46.6534 3.01023 46.6534 3.85599 45.8076L45.8076 3.85599C46.6534 3.01023 46.6534 1.637 45.8076 0.791243C44.9618 -0.0545195 43.5886 -0.0545195 42.7429 0.791243ZM39.3507 11.2678L11.2678 39.3507C10.422 40.1965 10.422 41.5697 11.2678 42.4155C12.1135 43.2612 13.4868 43.2612 14.3325 42.4155L42.4155 14.3325C43.2612 13.4868 43.2612 12.1135 42.4155 11.2678C41.5697 10.422 40.1965 10.422 39.3507 11.2678ZM46.2987 11.4042L11.4042 46.2987C10.5584 47.1445 10.5584 48.5177 11.4042 49.3634C12.25 50.2092 13.6232 50.2092 14.4689 49.3634L49.3634 14.4689C50.2092 13.6232 50.2092 12.25 49.3634 11.4042C48.5177 10.5584 47.1445 10.5584 46.2987 11.4042ZM38.8142 25.9822L25.9822 38.8142C25.1365 39.6599 25.1365 41.0331 25.9822 41.8789C26.828 42.7247 28.2012 42.7247 29.047 41.8789L41.8789 29.047C42.7247 28.2012 42.7247 26.828 41.8789 25.9822C41.0331 25.1365 39.6599 25.1365 38.8142 25.9822ZM38.8142 33.0666L33.0575 38.8233C32.2118 39.669 32.2118 41.0422 33.0575 41.888C33.9033 42.7338 35.2765 42.7338 36.1223 41.888L41.8789 36.1314C42.7247 35.2856 42.7247 33.9124 41.8789 33.0666C41.0331 32.2209 39.6599 32.2209 38.8142 33.0666Z" fill="#0D4F26"/>
</g>
<defs>
<clipPath id="clip0_150_586">
<rect width="50" height="50" fill="white"/>
</clipPath>
</defs>
</svg>
