<svg width="159" height="159" viewBox="0 0 159 159" fill="none" xmlns="http://www.w3.org/2000/svg">
<g clip-path="url(#clip0_150_572)">
<path d="M96.3646 36.9401C96.9487 37.6741 96.7951 38.7969 96.0612 39.381L62.5575 66.1971C62.3672 66.3518 62.22 66.552 62.1698 66.7726C62.0539 67.1333 62.1226 67.561 62.3805 67.8783C62.6384 68.1956 62.8757 68.2816 63.1849 68.3341C63.2556 68.3448 63.3442 68.3471 63.4245 68.3315C63.6557 68.3109 63.8797 68.228 64.0701 68.0733L69.2988 63.8978C71.8276 61.8611 75.6513 62.2183 77.6605 64.7819C78.6477 66.0499 79.0337 67.5772 78.8708 69.0547C78.7164 70.5502 77.9604 71.9766 76.7008 72.9818L76.2662 73.3165C75.7921 73.801 75.7365 74.5715 76.1659 75.1151C76.5953 75.6587 76.7307 75.5735 77.0758 75.6091C77.4209 75.6447 77.7779 75.5653 78.0772 75.3159L100.045 57.7276C102.374 56.8568 105.144 57.4882 106.758 59.5357C107.746 60.8037 108.158 62.3406 107.977 63.8265C107.928 64.3309 107.801 64.8067 107.629 65.2814L84.1932 84.038C83.6676 84.459 83.4969 85.2176 83.8365 85.8032C84.1761 86.3888 84.4505 86.4137 84.8483 86.4685C85.0341 86.4911 85.221 86.4694 85.409 86.4033C85.5612 86.354 85.6965 86.2688 85.8498 86.1752L98.3918 76.1486C98.8085 75.8223 99.3355 75.6853 99.84 75.7339C100.371 75.7922 100.896 76.0721 101.238 76.569C101.836 77.4276 101.619 78.602 100.804 79.2461L56.1269 114.989C55.7103 115.315 55.1832 115.452 54.6787 115.404C54.1742 115.355 53.7019 115.094 53.3756 114.677C52.6967 113.834 52.8442 112.605 53.6871 111.926L78.2551 92.2675C78.7807 91.8465 78.9514 91.0879 78.6118 90.5023C78.2722 89.9167 77.2331 89.6144 76.5985 90.1302L62.6066 101.317C60.5663 101.636 58.4294 100.906 57.0811 99.1937C56.0939 97.9257 55.7079 96.3984 55.8707 94.9209C55.9742 94.0186 56.2718 93.1568 56.7623 92.38L71.4069 80.6692C71.6607 80.4629 71.8186 80.192 71.8795 79.9008C71.9093 79.7773 71.9128 79.6443 71.9163 79.5113C71.9053 79.2537 71.8056 78.9938 71.6161 78.7759C71.4266 78.558 71.2 78.4013 70.9447 78.3236C70.5312 78.1886 70.0676 78.274 69.6964 78.5571L36.3197 105.27C33.7909 107.307 29.9852 106.941 27.958 104.386C26.9708 103.118 26.5585 101.581 26.7393 100.095C26.8937 98.5997 27.6497 97.1732 28.9093 96.1681L51.2024 78.3399C51.728 77.9188 51.81 77.1579 51.3974 76.6503C50.9848 76.1426 50.9022 76.2469 50.593 76.1945C50.2922 76.16 49.9616 76.2489 49.7078 76.4553L42.5849 82.1517C42.2221 82.4527 41.7669 82.5562 41.3331 82.5182C40.8993 82.4803 40.4882 82.2566 40.1871 81.8938C39.6029 81.1598 39.7565 80.037 40.4905 79.4529L68.2757 57.2165L68.2505 57.1626C68.3342 57.014 68.3927 56.8114 68.4153 56.6257C68.4594 56.2985 68.362 55.9499 68.1389 55.6602C67.7779 55.216 67.205 55.0679 66.6947 55.2409L66.6695 55.187C66.6695 55.187 66.6695 55.187 66.6516 55.1954L64.6125 56.8279C63.3074 57.8763 61.3759 57.7726 60.2545 56.5454C59.6164 55.8367 59.3472 54.9335 59.4411 54.0575C59.535 53.1816 59.9346 52.4911 60.6147 51.9321L76.6912 39.0699C77.9963 38.0215 79.9278 38.1252 81.0492 39.3524C81.6873 40.0611 81.9565 40.9643 81.8626 41.8403C81.7794 42.6455 81.3691 43.4067 80.689 43.9657L80.2448 44.3267L80.348 44.4536C80.3097 44.5591 80.2799 44.6825 80.2501 44.806C80.206 45.1331 80.3034 45.4817 80.5265 45.7715C80.7496 46.0612 81.3106 46.3243 81.7562 46.2473L81.8594 46.3742L94.0123 36.639C94.375 36.338 94.8303 36.2345 95.264 36.2725C95.6978 36.3104 96.109 36.5341 96.41 36.8969L96.3646 36.9401ZM130.17 53.227L130.145 53.1731C129.998 53.0006 129.742 52.9673 129.57 53.1137L104.875 72.8754C104.702 73.0218 104.669 73.2782 104.815 73.4506L104.84 73.5045C104.987 73.6769 105.243 73.7102 105.416 73.5639L130.111 53.8021C130.283 53.6558 130.316 53.3994 130.17 53.227ZM55.5073 60.627L55.4821 60.5731C55.3358 60.4007 55.0793 60.3674 54.9069 60.5137L43.1803 69.8962C43.0079 70.0425 42.9746 70.299 43.1209 70.4714L43.1461 70.5253C43.2924 70.6977 43.5489 70.731 43.7213 70.5847L55.4479 61.2022C55.6203 61.0559 55.6537 60.7994 55.5073 60.627ZM107.633 56.3022C106.98 56.8264 106.875 57.7731 107.39 58.452C107.905 59.1309 108.861 59.2091 109.54 58.6945C110.219 58.1799 110.297 57.2237 109.782 56.5448C109.268 55.8658 108.311 55.7876 107.633 56.3022ZM111.429 53.2783C110.777 53.8025 110.672 54.7491 111.187 55.428C111.701 56.1069 112.658 56.1852 113.337 55.6705C114.015 55.1559 114.094 54.1997 113.579 53.5208C113.055 52.8683 112.108 52.7637 111.429 53.2783ZM115.226 50.2543C114.573 50.7785 114.469 51.7251 114.984 52.4041C115.508 53.0566 116.454 53.1612 117.133 52.6466C117.812 52.132 117.89 51.1757 117.376 50.4968C116.861 49.8179 115.905 49.7397 115.226 50.2543ZM42.3746 122.1C41.722 122.624 41.6174 123.571 42.132 124.25C42.6467 124.929 43.6029 125.007 44.2818 124.493C44.9607 123.978 45.0389 123.022 44.5243 122.343C44.0097 121.664 43.0535 121.586 42.3746 122.1ZM46.1713 119.076C45.5188 119.6 45.4142 120.547 45.9288 121.226C46.4434 121.905 47.3996 121.983 48.0785 121.469C48.7574 120.954 48.8357 119.998 48.321 119.319C47.7969 118.666 46.8502 118.562 46.1713 119.076ZM49.968 116.052C49.3155 116.577 49.2109 117.523 49.7255 118.202C50.2401 118.881 51.1964 118.959 51.8753 118.445C52.5278 117.92 52.6324 116.974 52.1178 116.295C51.6032 115.616 50.647 115.538 49.968 116.052ZM81.4601 59.6108C80.4544 60.4096 80.3011 61.8608 81.1 62.8665C81.8988 63.8723 83.35 64.0256 84.3557 63.2267C85.3615 62.4278 85.5148 60.9767 84.7159 59.9709C83.917 58.9652 82.4659 58.8119 81.4601 59.6108ZM87.2145 55.0143C86.2087 55.8131 86.0554 57.2643 86.8543 58.27C87.6532 59.2758 89.1043 59.4291 90.1101 58.6302C91.1158 57.8313 91.2691 56.3802 90.4703 55.3744C89.6714 54.3687 88.2203 54.2154 87.2145 55.0143ZM92.9689 50.4178C91.9631 51.2167 91.8098 52.6678 92.6087 53.6735C93.4076 54.6793 94.8587 54.8326 95.8645 54.0337C96.8702 53.2348 97.0235 51.7837 96.2246 50.7779C95.4257 49.7722 93.9746 49.6189 92.9689 50.4178ZM49.0961 98.8341C46.7494 100.698 46.3761 104.113 48.2581 106.452C50.1222 108.798 53.5373 109.172 55.8757 107.29C58.2225 105.426 58.5957 102.01 56.7137 99.6721C54.8496 97.3253 51.4345 96.9521 49.0961 98.8341Z" fill="url(#paint0_linear_150_572)"/>
</g>
<defs>
<linearGradient id="paint0_linear_150_572" x1="63.2856" y1="45.2382" x2="90.3062" y2="103.006" gradientUnits="userSpaceOnUse">
<stop stop-color="#19A74F"/>
<stop offset="1" stop-opacity="0"/>
</linearGradient>
<clipPath id="clip0_150_572">
<rect width="119" height="119" fill="white" transform="translate(0 50.4185) rotate(-25.0676)"/>
</clipPath>
</defs>
</svg>
