<svg width="33" height="33" viewBox="0 0 33 33" fill="none" xmlns="http://www.w3.org/2000/svg">
<path d="M16.4999 0C12.582 0.000166577 8.79195 1.42971 5.80795 4.03283C2.82395 6.63596 0.840716 10.2428 0.213113 14.208C-0.414489 18.1732 0.354492 22.2379 2.38246 25.675C4.41043 29.1121 7.56505 31.6971 11.2819 32.9676C12.1069 33.1157 12.4162 32.6082 12.4162 32.164C12.4162 31.7623 12.3956 30.43 12.3956 29.0132C8.24999 29.7956 7.1775 27.9771 6.8475 27.0255C6.48132 26.1 5.90086 25.2798 5.15626 24.6359C4.57876 24.3187 3.75377 23.5362 5.13562 23.5151C5.66326 23.5738 6.16933 23.7621 6.61094 24.0639C7.05255 24.3658 7.41668 24.7723 7.67249 25.2491C7.89816 25.6647 8.20161 26.0307 8.56545 26.3259C8.92929 26.6211 9.34636 26.8398 9.79278 26.9694C10.2392 27.0991 10.7062 27.1371 11.167 27.0814C11.6278 27.0257 12.0733 26.8773 12.478 26.6448C12.5495 25.7847 12.9233 24.9806 13.53 24.3821C9.85873 23.9592 6.0225 22.5 6.0225 16.0292C5.99932 14.3479 6.60443 12.7212 7.71374 11.4827C7.20931 10.0214 7.26833 8.41775 7.87874 6.99959C7.87874 6.99959 9.26055 6.5555 12.4162 8.73362C15.1161 7.97229 17.9663 7.97229 20.6662 8.73362C23.8217 6.53437 25.2036 6.99959 25.2036 6.99959C25.8141 8.41773 25.8731 10.0214 25.3686 11.4827C26.4813 12.719 27.0869 14.3472 27.0599 16.0292C27.0599 22.5212 23.203 23.9592 19.5318 24.3821C19.9256 24.7913 20.2288 25.2826 20.421 25.8227C20.6132 26.3627 20.6897 26.9388 20.6455 27.5118C20.6455 29.7746 20.6249 31.5931 20.6249 32.1641C20.6249 32.6082 20.9343 33.1369 21.7593 32.9677C25.4695 31.6868 28.6151 29.0957 30.6344 25.6569C32.6537 22.2181 33.4154 18.1554 32.7835 14.194C32.1515 10.2327 30.1671 6.63053 27.1844 4.03057C24.2017 1.43061 20.4149 0.00208913 16.4999 0Z" fill="#292929"/>
</svg>
