<svg width="46" height="41" viewBox="0 0 46 41" fill="none" xmlns="http://www.w3.org/2000/svg">
<path d="M26.7325 24.562L27.7631 14.133C27.8326 13.4296 28.7461 13.2017 29.1379 13.79L32.6044 18.9954L37.1102 26.4929C37.1935 26.6315 37.2299 26.7934 37.214 26.9543L36.1947 37.2687C36.1238 37.9862 35.1818 38.2026 34.8048 37.588L31.1299 31.5963L26.8513 25.0475C26.7575 24.9039 26.7156 24.7327 26.7325 24.562Z" fill="url(#paint0_linear_150_357)"/>
<path d="M9.78966 19.0294L11.75 1.61141C11.7946 1.2154 12.3436 1.1515 12.4779 1.52669L19.5309 21.2275C19.5498 21.2803 19.5567 21.3365 19.551 21.3922L17.7693 38.9881C17.729 39.3858 17.1782 39.4544 17.0416 39.0788L9.80996 19.2001C9.79011 19.1455 9.78316 19.0871 9.78966 19.0294Z" fill="url(#paint1_linear_150_357)"/>
<path d="M34.1899 35.5762L35.1754 26.308C35.2084 25.9979 35.2763 25.6924 35.378 25.3976L36.0114 23.5594C36.2452 22.8806 36.6517 22.2744 37.1908 21.8003L37.7114 21.3425C38.4667 20.6783 39.438 20.312 40.4438 20.312H41.9834C42.352 20.312 42.7172 20.3828 43.0591 20.5206C43.3223 20.6267 43.5683 20.7711 43.7892 20.9492L43.9037 21.0415C44.7807 21.7484 45.3057 22.8027 45.3415 23.9285L45.4989 28.8756C45.5088 29.1864 45.4836 29.4973 45.4238 29.8024L45.0299 31.8136C44.8973 32.4906 44.5976 33.1236 44.1579 33.6552L42.1601 36.071C41.8082 36.4965 41.3747 36.8473 40.8851 37.1026L38.3626 38.4184C37.9536 38.6318 37.4992 38.7431 37.038 38.7431C35.3364 38.7431 34.01 37.2683 34.1899 35.5762Z" fill="url(#paint2_linear_150_357)"/>
<path d="M19.0315 21.0053L17.039 38.7614V39.1353C17.039 39.3417 17.2064 39.5091 17.4128 39.5091H19.8089C20.2154 39.5091 20.6217 39.4174 20.9897 39.2447C21.1437 39.1725 21.2928 39.0855 21.4312 38.9866L23.5442 37.4764C24.7661 36.6031 25.7448 35.4324 26.3878 34.0752C26.7942 33.2176 27.0595 32.3001 27.1736 31.3581L27.9975 24.5565L29.1291 14.3969C29.2694 13.1364 28.2828 12.0338 27.0145 12.0338C26.7426 12.0338 26.4731 12.0859 26.2208 12.1873L25.1871 12.6029C24.2792 12.9679 23.4472 13.4987 22.7335 14.1682L21.7116 15.1268C21.1243 15.6777 20.6314 16.3214 20.2526 17.032C19.9709 17.5606 19.7548 18.1216 19.609 18.7026L19.0315 21.0053Z" fill="url(#paint3_linear_150_357)"/>
<path d="M2.85808 10.1249L0.251427 35.8125C0.0983234 37.3213 0.841691 38.7802 2.15233 39.5432C3.63562 40.4067 5.51065 40.1886 6.7562 39.0078L7.25597 38.534C8.08083 37.752 8.60035 36.7018 8.72147 35.5717L12.3682 1.54465C12.3921 1.32232 12.2178 1.12842 11.9942 1.12842H10.568C9.86912 1.12842 9.18091 1.30016 8.56394 1.62853C7.26957 2.31744 6.15829 3.30535 5.32251 4.51011L4.88991 5.13369L4.48726 5.71409C3.57946 7.02267 3.01886 8.54038 2.85808 10.1249Z" fill="url(#paint4_linear_150_357)"/>
<defs>
<linearGradient id="paint0_linear_150_357" x1="31.9725" y1="12.0367" x2="31.9725" y2="39.4954" gradientUnits="userSpaceOnUse">
<stop stop-color="#117035"/>
<stop offset="1" stop-color="#121212"/>
</linearGradient>
<linearGradient id="paint1_linear_150_357" x1="11.1818" y1="2.23636" x2="14.6697" y2="40.6239" gradientUnits="userSpaceOnUse">
<stop offset="0.104167" stop-color="#121212"/>
<stop offset="1" stop-color="#117035"/>
</linearGradient>
<linearGradient id="paint2_linear_150_357" x1="39.6835" y1="20.312" x2="39.6835" y2="38.7431" gradientUnits="userSpaceOnUse">
<stop stop-color="#19A74F"/>
<stop offset="0.84375" stop-color="#121212"/>
</linearGradient>
<linearGradient id="paint3_linear_150_357" x1="23.2156" y1="12.0338" x2="23.2156" y2="39.5091" gradientUnits="userSpaceOnUse">
<stop stop-color="#19A74F"/>
<stop offset="0.864583" stop-color="#131E17"/>
<stop offset="0.9375" stop-color="#121212"/>
<stop offset="1" stop-color="#121212"/>
</linearGradient>
<linearGradient id="paint4_linear_150_357" x1="9.7974" y1="7.72076" x2="6.20642" y2="41" gradientUnits="userSpaceOnUse">
<stop stop-color="#117035"/>
<stop offset="1" stop-color="#19A74F"/>
</linearGradient>
</defs>
</svg>
