<svg width="34" height="34" viewBox="0 0 34 34" fill="none" xmlns="http://www.w3.org/2000/svg">
<path d="M30.6833 0.652577H2.45C2.13263 0.648169 1.8175 0.706323 1.52261 0.823716C1.22772 0.94111 0.958839 1.11544 0.731329 1.33676C0.50382 1.55808 0.322136 1.82205 0.196653 2.11359C0.0711707 2.40513 0.00434732 2.71854 0 3.03591V31.6026C0.00434732 31.9199 0.0711707 32.2333 0.196653 32.5249C0.322136 32.8164 0.50382 33.0804 0.731329 33.3017C0.958839 33.523 1.22772 33.6974 1.52261 33.8148C1.8175 33.9322 2.13263 33.9903 2.45 33.9859H30.6833C31.0007 33.9903 31.3158 33.9322 31.6107 33.8148C31.9056 33.6974 32.1745 33.523 32.402 33.3017C32.6295 33.0804 32.8112 32.8164 32.9367 32.5249C33.0622 32.2333 33.129 31.9199 33.1333 31.6026V3.03591C33.129 2.71854 33.0622 2.40513 32.9367 2.11359C32.8112 1.82205 32.6295 1.55808 32.402 1.33676C32.1745 1.11544 31.9056 0.94111 31.6107 0.823716C31.3158 0.706323 31.0007 0.648169 30.6833 0.652577ZM10.05 28.5526H5.05V13.5526H10.05V28.5526ZM7.55 11.4526C6.86044 11.4526 6.19912 11.1786 5.71152 10.6911C5.22393 10.2035 4.95 9.54214 4.95 8.85258C4.95 8.16301 5.22393 7.50169 5.71152 7.0141C6.19912 6.5265 6.86044 6.25258 7.55 6.25258C7.91616 6.21105 8.28696 6.24733 8.63813 6.35905C8.98929 6.47076 9.3129 6.65539 9.58776 6.90085C9.86263 7.1463 10.0825 7.44704 10.2331 7.78338C10.3837 8.11972 10.4615 8.48407 10.4615 8.85258C10.4615 9.22108 10.3837 9.58543 10.2331 9.92177C10.0825 10.2581 9.86263 10.5589 9.58776 10.8043C9.3129 11.0498 8.98929 11.2344 8.63813 11.3461C8.28696 11.4578 7.91616 11.4941 7.55 11.4526ZM28.0833 28.5526H23.0833V20.5026C23.0833 18.4859 22.3667 17.1692 20.55 17.1692C19.9878 17.1734 19.4403 17.3497 18.9814 17.6745C18.5225 17.9993 18.1741 18.457 17.9833 18.9859C17.8529 19.3776 17.7964 19.7902 17.8167 20.2026V28.5359H12.8167C12.8167 28.5359 12.8167 14.9026 12.8167 13.5359H17.8167V15.6526C18.2709 14.8644 18.9315 14.2151 19.7274 13.7746C20.5233 13.3341 21.4243 13.119 22.3333 13.1526C25.6667 13.1526 28.0833 15.3026 28.0833 19.9192V28.5526Z" fill="#292929"/>
</svg>
