<svg width="20" height="20" viewBox="0 0 20 20" fill="none" xmlns="http://www.w3.org/2000/svg">
<path d="M9.99998 9C10.3296 9 10.6518 8.90225 10.9259 8.71912C11.2 8.53598 11.4136 8.27568 11.5398 7.97114C11.6659 7.6666 11.6989 7.33149 11.6346 7.00819C11.5703 6.68488 11.4116 6.38791 11.1785 6.15482C10.9454 5.92174 10.6484 5.763 10.3251 5.69869C10.0018 5.63438 9.66672 5.66739 9.36217 5.79354C9.05763 5.91968 8.79733 6.1333 8.6142 6.40739C8.43106 6.68147 8.33331 7.0037 8.33331 7.33334C8.33331 7.77536 8.50891 8.19929 8.82147 8.51185C9.13403 8.82441 9.55795 9 9.99998 9ZM9.40831 14.7583C9.48578 14.8364 9.57795 14.8984 9.6795 14.9407C9.78105 14.9831 9.88997 15.0048 9.99998 15.0048C10.11 15.0048 10.2189 14.9831 10.3205 14.9407C10.422 14.8984 10.5142 14.8364 10.5916 14.7583L14 11.3417C14.7916 10.5505 15.3308 9.54224 15.5494 8.44455C15.7679 7.34686 15.6561 6.20901 15.2279 5.17491C14.7997 4.14081 14.0745 3.25693 13.1439 2.63505C12.2133 2.01317 11.1192 1.68124 9.99998 1.68124C8.88074 1.68124 7.78664 2.01317 6.85607 2.63505C5.9255 3.25693 5.20026 4.14081 4.77208 5.17491C4.3439 6.20901 4.23202 7.34686 4.45059 8.44455C4.66915 9.54224 5.20835 10.5505 5.99998 11.3417L9.40831 14.7583ZM6.02498 6.95C6.08192 6.35585 6.27083 5.78191 6.57792 5.2701C6.88501 4.75828 7.30252 4.32151 7.79998 3.99167C8.45348 3.56258 9.2182 3.33397 9.99998 3.33397C10.7818 3.33397 11.5465 3.56258 12.2 3.99167C12.6941 4.32038 13.1093 4.7545 13.4156 5.26282C13.7219 5.77114 13.9118 6.34103 13.9715 6.93149C14.0313 7.52196 13.9595 8.11833 13.7612 8.67772C13.563 9.23711 13.2432 9.74561 12.825 10.1667L9.99998 12.9917L7.17498 10.1667C6.75625 9.7497 6.43575 9.24461 6.23682 8.68817C6.03788 8.13173 5.96551 7.53794 6.02498 6.95ZM15.8333 16.6667H4.16665C3.94563 16.6667 3.73367 16.7545 3.57739 16.9107C3.42111 17.067 3.33331 17.279 3.33331 17.5C3.33331 17.721 3.42111 17.933 3.57739 18.0893C3.73367 18.2455 3.94563 18.3333 4.16665 18.3333H15.8333C16.0543 18.3333 16.2663 18.2455 16.4226 18.0893C16.5788 17.933 16.6666 17.721 16.6666 17.5C16.6666 17.279 16.5788 17.067 16.4226 16.9107C16.2663 16.7545 16.0543 16.6667 15.8333 16.6667Z" fill="url(#paint0_linear_158_625)"/>
<defs>
<linearGradient id="paint0_linear_158_625" x1="9.99998" y1="1.68124" x2="9.99998" y2="18.3333" gradientUnits="userSpaceOnUse">
<stop stop-color="#117035"/>
<stop offset="1" stop-color="#19A74F"/>
</linearGradient>
</defs>
</svg>
