<svg width="20" height="20" viewBox="0 0 20 20" fill="none" xmlns="http://www.w3.org/2000/svg">
<g clip-path="url(#clip0_191_22)">
<path d="M17.8571 7.14289C17.8571 6.54765 17.6487 6.0417 17.2321 5.62503C16.8154 5.20837 16.3095 5.00003 15.7142 5.00003H14.9999V9.28575H15.7142C16.3095 9.28575 16.8154 9.07742 17.2321 8.66075C17.6487 8.24408 17.8571 7.73813 17.8571 7.14289ZM-0.714355 15.7143H19.2856C19.2856 16.503 19.0066 17.1764 18.4486 17.7344C17.8906 18.2924 17.2172 18.5715 16.4285 18.5715H2.14279C1.3541 18.5715 0.680734 18.2924 0.122698 17.7344C-0.435338 17.1764 -0.714355 16.503 -0.714355 15.7143ZM19.9999 7.14289C19.9999 8.32593 19.5814 9.33597 18.7443 10.173C17.9073 11.0101 16.8973 11.4286 15.7142 11.4286H14.9999V11.7857C14.9999 12.4703 14.7544 13.0581 14.2633 13.5491C13.7723 14.0402 13.1845 14.2857 12.4999 14.2857H4.64279C3.95826 14.2857 3.37047 14.0402 2.87939 13.5491C2.38832 13.0581 2.14279 12.4703 2.14279 11.7857V3.57146C2.14279 3.37801 2.21347 3.2106 2.35484 3.06923C2.49621 2.92786 2.66362 2.85718 2.85707 2.85718H15.7142C16.8973 2.85718 17.9073 3.2757 18.7443 4.11276C19.5814 4.94981 19.9999 5.95986 19.9999 7.14289Z" fill="url(#paint0_linear_191_22)"/>
</g>
<defs>
<linearGradient id="paint0_linear_191_22" x1="9.64279" y1="2.85718" x2="9.64279" y2="18.5715" gradientUnits="userSpaceOnUse">
<stop stop-color="#19A74F"/>
<stop offset="1" stop-color="#117035"/>
</linearGradient>
<clipPath id="clip0_191_22">
<rect width="20" height="20" fill="white"/>
</clipPath>
</defs>
</svg>
