<svg width="25" height="25" viewBox="0 0 25 25" fill="none" xmlns="http://www.w3.org/2000/svg">
<path d="M17.2916 3.125H7.70829C6.78782 3.125 6.04163 3.87119 6.04163 4.79167V20.2083C6.04163 21.1288 6.78782 21.875 7.70829 21.875H17.2916C18.2121 21.875 18.9583 21.1288 18.9583 20.2083V4.79167C18.9583 3.87119 18.2121 3.125 17.2916 3.125Z" fill="#1C1C1C"/>
<path d="M16.875 4.375H8.12496C7.66472 4.375 7.29163 4.7481 7.29163 5.20833V7.91667C7.29163 8.3769 7.66472 8.75 8.12496 8.75H16.875C17.3352 8.75 17.7083 8.3769 17.7083 7.91667V5.20833C17.7083 4.7481 17.3352 4.375 16.875 4.375Z" fill="#505050"/>
<path d="M8.54163 12.7083C9.23198 12.7083 9.79163 12.1487 9.79163 11.4583C9.79163 10.768 9.23198 10.2083 8.54163 10.2083C7.85127 10.2083 7.29163 10.768 7.29163 11.4583C7.29163 12.1487 7.85127 12.7083 8.54163 12.7083Z" fill="#D4D4D2"/>
<path d="M12.5 12.7083C13.1904 12.7083 13.75 12.1487 13.75 11.4583C13.75 10.768 13.1904 10.2083 12.5 10.2083C11.8096 10.2083 11.25 10.768 11.25 11.4583C11.25 12.1487 11.8096 12.7083 12.5 12.7083Z" fill="#D4D4D2"/>
<path d="M16.4584 12.7083C17.1487 12.7083 17.7084 12.1487 17.7084 11.4583C17.7084 10.768 17.1487 10.2083 16.4584 10.2083C15.768 10.2083 15.2084 10.768 15.2084 11.4583C15.2084 12.1487 15.768 12.7083 16.4584 12.7083Z" fill="#FE9500"/>
<path d="M8.54163 16.6667C9.23198 16.6667 9.79163 16.107 9.79163 15.4167C9.79163 14.7263 9.23198 14.1667 8.54163 14.1667C7.85127 14.1667 7.29163 14.7263 7.29163 15.4167C7.29163 16.107 7.85127 16.6667 8.54163 16.6667Z" fill="#D4D4D2"/>
<path d="M12.5 16.6667C13.1904 16.6667 13.75 16.107 13.75 15.4167C13.75 14.7263 13.1904 14.1667 12.5 14.1667C11.8096 14.1667 11.25 14.7263 11.25 15.4167C11.25 16.107 11.8096 16.6667 12.5 16.6667Z" fill="#D4D4D2"/>
<path d="M16.4584 16.6667C17.1487 16.6667 17.7084 16.107 17.7084 15.4167C17.7084 14.7263 17.1487 14.1667 16.4584 14.1667C15.768 14.1667 15.2084 14.7263 15.2084 15.4167C15.2084 16.107 15.768 16.6667 16.4584 16.6667Z" fill="#FE9500"/>
<path d="M8.54163 20.625C8.21011 20.625 7.89216 20.4933 7.65774 20.2589C7.42332 20.0245 7.29163 19.7065 7.29163 19.375C7.29163 19.0435 7.42332 18.7255 7.65774 18.4911C7.89216 18.2567 8.21011 18.125 8.54163 18.125H12.5C12.8315 18.125 13.1494 18.2567 13.3838 18.4911C13.6183 18.7255 13.75 19.0435 13.75 19.375C13.75 19.7065 13.6183 20.0245 13.3838 20.2589C13.1494 20.4933 12.8315 20.625 12.5 20.625H8.54163Z" fill="#D4D4D2"/>
<path d="M16.4584 20.625C17.1487 20.625 17.7084 20.0654 17.7084 19.375C17.7084 18.6846 17.1487 18.125 16.4584 18.125C15.768 18.125 15.2084 18.6846 15.2084 19.375C15.2084 20.0654 15.768 20.625 16.4584 20.625Z" fill="#FE9500"/>
</svg>
