<svg width="26" height="26" viewBox="0 0 26 26" fill="none" xmlns="http://www.w3.org/2000/svg">
<path d="M13.5 26C20.4036 26 26 24.8739 26 23.4848C26 22.0957 20.4036 20.9696 13.5 20.9696C6.59644 20.9696 1 22.0957 1 23.4848C1 24.8739 6.59644 26 13.5 26Z" fill="#E8EDF1"/>
<path d="M9.30893 24.659C11.295 24.4702 12.8731 23.7002 12.8338 22.9391C12.7945 22.178 11.1527 21.7142 9.16661 21.903C7.18056 22.0918 5.60241 22.8618 5.64172 23.6229C5.68102 24.3839 7.32288 24.8478 9.30893 24.659Z" fill="#FFF8AA" stroke="black" stroke-linecap="round" stroke-linejoin="round"/>
<path d="M5.76721 23.7614L6.72039 23.559" stroke="black" stroke-linecap="round"/>
<path fill-rule="evenodd" clip-rule="evenodd" d="M4.28214 9.62697C4.0501 9.21479 3.57966 7.57984 3.63425 6.1505C3.68931 4.72116 4.26986 3.49696 4.26986 3.49696C4.26986 3.49696 5.48919 3.52766 6.68669 3.96136C7.74996 4.34698 8.79595 5.09392 8.95383 5.76761M11.529 6.50036C11.529 6.50036 12.2251 4.10837 12.994 3.26249C13.6464 2.5453 15.1087 1.87207 15.1087 1.87207L16.6356 3.415C17.8618 4.65382 16.299 7.37376 16.299 7.37376" fill="#ECD160"/>
<path d="M4.28214 9.62697C4.0501 9.21479 3.57966 7.57984 3.63425 6.1505C3.68931 4.72116 4.26986 3.49696 4.26986 3.49696C4.26986 3.49696 5.48919 3.52766 6.68669 3.96136C7.74996 4.34698 8.79595 5.09392 8.95383 5.76761M11.529 6.50036C11.529 6.50036 12.2251 4.10837 12.994 3.26249C13.6464 2.5453 15.1087 1.87207 15.1087 1.87207L16.6356 3.415C17.8618 4.65382 16.299 7.37376 16.299 7.37376" stroke="black"/>
<path fill-rule="evenodd" clip-rule="evenodd" d="M13.1151 4.96752C13.1151 4.96752 14.3618 4.06851 15.0593 4.34284C15.9146 4.67945 15.8987 6.73212 15.8987 6.73212M6.07668 8.40693C6.07668 8.40693 6.05666 5.87611 7.4093 5.38883C8.76149 4.90154 10.4021 7.22856 10.4021 7.22856" fill="#ECD160"/>
<path d="M13.1151 4.96752C13.1151 4.96752 14.3618 4.06851 15.0593 4.34284C15.9146 4.67945 15.8987 6.73212 15.8987 6.73212M6.07668 8.40693C6.07668 8.40693 6.05666 5.87611 7.4093 5.38883C8.76149 4.90154 10.4021 7.22856 10.4021 7.22856" stroke="black"/>
<path fill-rule="evenodd" clip-rule="evenodd" d="M5.46608 16.513C5.46608 16.513 6.38149 13.4007 5.58892 12.307C5.08936 11.6168 3.63253 10.2392 3.63253 10.2392L1.85266 8.45128C1.85266 8.45128 3.84637 7.41395 5.64215 7.24954C6.634 7.15886 8.34061 7.83716 8.34061 7.83716C8.34061 7.83716 8.36655 6.74168 9.20143 4.05427C9.49853 3.09802 10.5718 1 10.5718 1C10.5718 1 12.3385 2.51592 13.0341 3.37737C14.3891 5.05448 14.9696 6.45037 14.9696 6.45037C14.9696 6.45037 16.9001 4.30156 18.7373 3.81427C20.1672 3.43507 21.9244 3.97092 21.9244 3.97092C21.9244 3.97092 20.6923 6.08216 19.9803 7.22069C18.9133 8.92711 18.2818 10.3258 18.2818 10.3258L18.8892 13.1909" fill="#FFF8AA"/>
<path d="M5.46608 16.513C5.46608 16.513 6.38149 13.4007 5.58892 12.307C5.08936 11.6168 3.63253 10.2392 3.63253 10.2392L1.85266 8.45128C1.85266 8.45128 3.84637 7.41395 5.64215 7.24954C6.634 7.15886 8.34061 7.83716 8.34061 7.83716C8.34061 7.83716 8.36655 6.74168 9.20143 4.05427C9.49853 3.09802 10.5718 1 10.5718 1C10.5718 1 12.3385 2.51592 13.0341 3.37737C14.3891 5.05448 14.9696 6.45037 14.9696 6.45037C14.9696 6.45037 16.9001 4.30156 18.7373 3.81427C20.1672 3.43507 21.9244 3.97092 21.9244 3.97092C21.9244 3.97092 20.6923 6.08216 19.9803 7.22069C18.9133 8.92711 18.2818 10.3258 18.2818 10.3258L18.8892 13.1909" stroke="black" stroke-linecap="round"/>
<path fill-rule="evenodd" clip-rule="evenodd" d="M11.1196 9.52204L12.3326 9.1969C12.3326 9.1969 12.6765 10.9477 12.1292 11.1804C11.5668 11.4194 11.1196 9.52204 11.1196 9.52204Z" fill="#C43A46" stroke="black"/>
<path d="M20.4639 14.3226C21.059 18.6138 17.9297 22.6073 13.4741 23.2425C9.01851 23.8782 4.92418 20.9147 4.32907 16.6239C4.03107 14.4783 4.85002 11.9525 4.85002 11.9525L6.33461 14.1371L8.94071 12.1902L11.1537 14.4828L12.3489 12.0317L14.8809 12.983L16.052 10.8941L18.3205 12.5648L18.8373 10.084C18.8373 10.084 20.1659 12.1769 20.4639 14.3226Z" fill="#EAEAE9" stroke="black" stroke-linecap="round" stroke-linejoin="round"/>
<path d="M16.0866 12.5017C15.935 12.5443 15.6084 14.1811 15.5843 14.2901C15.5601 14.3991 14.9782 16.0702 15.1029 16.1316C15.228 16.193 17.5825 15.4895 17.7313 15.4492C17.8796 15.4089 19.977 14.7934 20.0071 14.683C20.0366 14.5727 18.2923 13.5949 18.174 13.5326C18.0557 13.4699 16.2385 12.4596 16.0866 12.5022V12.5017ZM16.4369 13.4373C16.5206 13.4209 17.6289 13.9745 17.7003 14.0089C17.7727 14.0432 18.8369 14.5786 18.8273 14.6322C18.8182 14.6863 17.6589 14.9308 17.5771 14.9468C17.4952 14.9624 16.1953 15.2436 16.1198 15.2097C16.0442 15.1758 16.2644 14.3633 16.2708 14.3097C16.2772 14.2566 16.3527 13.4543 16.4369 13.4373ZM7.64766 17.2784C7.54575 17.3265 7.32645 19.1973 7.31007 19.3214C7.29415 19.4459 6.90287 21.3548 6.98658 21.4249C7.0703 21.4949 8.65316 20.6916 8.7528 20.6454C8.85289 20.5991 10.2629 19.8961 10.2829 19.7697C10.3029 19.6438 9.13043 18.5273 9.05081 18.4553C8.97119 18.3844 7.74958 17.2298 7.64766 17.2784ZM8.03439 18.301C8.08671 18.2827 8.7801 18.8964 8.82514 18.9348C8.87018 18.9729 9.53581 19.5669 9.5299 19.6264C9.52398 19.6859 8.79921 19.9576 8.74779 19.9754C8.69638 19.9928 7.88334 20.3038 7.83557 20.2662C7.78825 20.2287 7.92656 19.3273 7.9302 19.2687C7.93384 19.2092 7.98207 18.3194 8.03439 18.301Z" fill="#CC2405" stroke="black" stroke-linecap="round" stroke-linejoin="round"/>
<path d="M10.5369 8.67835C10.5079 8.57974 10.5049 8.47534 10.5282 8.37554C10.5515 8.27575 10.6002 8.18414 10.6695 8.1099C10.7389 8.0356 10.8264 7.98134 10.9232 7.95256C11.02 7.92379 11.1228 7.92153 11.2211 7.94601C11.3193 7.97047 11.4097 8.02076 11.4831 8.09183C11.5565 8.16289 11.6103 8.2522 11.6392 8.35083" stroke="black" stroke-linecap="round" stroke-linejoin="round"/>
<path d="M12.6228 8.06197C12.5862 7.96638 12.5749 7.86258 12.5902 7.761C12.6054 7.65943 12.6467 7.56365 12.7097 7.48329C12.7728 7.40292 12.8556 7.34084 12.9496 7.30326C13.0437 7.26567 13.1457 7.25391 13.2455 7.26917C13.3452 7.28448 13.4392 7.32623 13.5179 7.39025C13.5966 7.45427 13.6573 7.53831 13.694 7.63391" stroke="black" stroke-linecap="round" stroke-linejoin="round"/>
<path fill-rule="evenodd" clip-rule="evenodd" d="M6.33915 15.4729C6.89285 16.0408 6.10847 17.047 5.26176 17.7056C4.6248 18.2011 4.28948 17.6689 2.99508 16.4425C2.18658 15.6763 0.763419 13.7908 1.64789 13.9579C2.68387 14.153 3.4687 14.4182 4.36182 14.6774C5.2604 14.9385 6.0061 15.1317 6.33915 15.4729Z" fill="#FFF8AA" stroke="black"/>
<path d="M15.4123 22.4365C15.3602 22.4895 14.3608 22.2291 14.2886 22.2094C14.2164 22.1896 13.074 21.9766 13.0506 21.9046C13.0273 21.8326 13.8824 20.9583 13.9315 20.9017C13.9805 20.8451 14.7335 20.047 14.8037 20.0671C14.874 20.0873 15.1503 21.1753 15.1684 21.2486C15.1865 21.322 15.4644 22.3834 15.4123 22.4365Z" fill="#0085BE" stroke="black" stroke-width="0.999918" stroke-linecap="round" stroke-linejoin="round"/>
<path d="M18.4668 22.8281C19.6698 22.8407 20.8569 21.2859 21.1182 19.3554C21.3795 17.4249 20.6161 15.8497 19.4131 15.8371C18.21 15.8244 17.0229 17.3792 16.7616 19.3097C16.5003 21.2402 17.2637 22.8155 18.4668 22.8281Z" fill="#FFF8AA" stroke="black" stroke-width="1.004" stroke-linecap="round" stroke-linejoin="round"/>
<path d="M19.2632 18.6243L19.7527 16.0239" stroke="black" stroke-linecap="round"/>
<path d="M20.1898 20.2416C20.1085 20.7358 19.8879 21.1769 19.5762 21.4686C19.2645 21.7602 18.8871 21.8786 18.5265 21.7979C18.1659 21.7172 17.8514 21.4438 17.652 21.0375C17.4525 20.6313 17.3843 20.1254 17.4623 19.6303L18.8275 19.9272L20.1898 20.2416Z" fill="#E48B69" stroke="black" stroke-width="1.001" stroke-linecap="round" stroke-linejoin="round"/>
<path d="M7.94677 16.2424C7.89284 16.2429 7.02684 16.2839 6.99915 16.2329C6.97152 16.1819 7.46226 15.3646 7.48987 15.3093C7.51748 15.254 7.92184 14.4184 7.97713 14.4173C8.03237 14.4162 8.41369 15.222 8.43917 15.2728C8.4647 15.3235 8.82928 16.1008 8.79955 16.156C8.76982 16.2113 8.00053 16.2419 7.94677 16.2424Z" fill="#E33B1C" stroke="black" stroke-width="1.00064" stroke-linecap="round" stroke-linejoin="round"/>
<path fill-rule="evenodd" clip-rule="evenodd" d="M17.632 12.3624C18.1857 12.9303 17.4014 13.9369 16.5551 14.595C15.9181 15.0906 15.5824 14.5584 14.288 13.3319C13.4795 12.5657 12.0563 10.6807 12.9412 10.8474C13.9767 11.043 14.762 11.3082 15.6552 11.5674C16.5537 11.8284 17.2994 12.0212 17.632 12.3624Z" fill="#FFF8AA" stroke="black"/>
<path d="M10.1645 15.9132C10.0904 15.9086 10.0426 15.9177 10.029 15.9347C9.92159 16.0712 10.7651 18.579 10.8193 18.7471C10.8739 18.9152 11.5108 21.6003 11.6655 21.626C11.8211 21.6516 13.4549 19.4711 13.5605 19.3397C13.6665 19.2078 15.1292 17.2806 15.0796 17.1075C15.0296 16.9349 12.7779 16.4032 12.6273 16.3725C12.4963 16.345 10.6869 15.9259 10.165 15.9127L10.1645 15.9132ZM10.8265 16.6418C11.1837 16.6532 12.4235 16.9486 12.5131 16.9679C12.616 16.9894 14.1588 17.3635 14.1934 17.4817C14.2284 17.6003 13.2361 18.9083 13.1642 18.9976C13.0928 19.0874 11.984 20.568 11.8775 20.5497C11.7715 20.5313 11.3247 18.6958 11.287 18.5804C11.2488 18.4659 10.6609 16.7489 10.7337 16.6569C10.7428 16.645 10.7756 16.6399 10.8265 16.6418Z" fill="#0085BE" stroke="black" stroke-linecap="round" stroke-linejoin="round"/>
<path fill-rule="evenodd" clip-rule="evenodd" d="M11.3771 9.9351L12.2647 9.72534C12.2647 9.72534 12.5118 10.8831 12.111 11.0343C11.6992 11.19 11.3771 9.9351 11.3771 9.9351Z" fill="#DB5661"/>
</svg>
